<svg xmlns="http://www.w3.org/2000/svg" xmlns:xlink="http://www.w3.org/1999/xlink" version="1.1" id="Group_3795" x="0px" y="0px" viewBox="0 0 84 84" style="enable-background:new 0 0 84 84;" xml:space="preserve">
<style type="text/css">
	<!-- .st0{enable-background:new    ;} -->
	.st1{fill:green;}
	.st2{fill:none;stroke:#2e6796;stroke-width:4;stroke-miterlimit:10;}
</style>
<g class="st0">
	<path class="st1" d="M42,17.5c3.1,3.6,5.8,7.1,8.2,10.7c1,1.5,2,3.1,3,4.8c1,1.7,1.8,3.4,2.6,5.1s1.4,3.4,1.9,5.1   c0.5,1.7,0.7,3.3,0.7,4.8c0,2.3-0.4,4.4-1.3,6.3c-0.9,2-2,3.7-3.5,5.2c-1.5,1.5-3.2,2.7-5.2,3.5s-4.1,1.3-6.3,1.3   c-2.3,0-4.4-0.4-6.3-1.3c-2-0.9-3.7-2-5.2-3.5c-1.5-1.5-2.7-3.2-3.5-5.2c-0.9-2-1.3-4.1-1.3-6.3c0-1.5,0.2-3.1,0.7-4.8   c0.5-1.7,1.1-3.4,1.9-5.1s1.6-3.4,2.6-5.1c1-1.7,2-3.3,3-4.8C36.3,24.6,39,21,42,17.5z M44.1,51.9c1.1-0.3,2-0.9,2.6-1.8   c0.6-0.9,0.9-1.8,0.9-2.9c0-1.2-0.4-2.2-1.1-2.8c-0.7-0.7-1.6-1.2-2.4-1.6c-0.9-0.4-1.7-0.7-2.4-1c-0.7-0.3-1.1-0.7-1.1-1.2   c0-0.5,0.2-0.8,0.5-1c0.4-0.2,0.8-0.3,1.2-0.3c0.5,0,0.9,0.1,1.3,0.2c0.4,0.1,0.8,0.3,1.1,0.5c0.4,0.2,0.7,0.4,1,0.7l1.6-3.2   c-0.3-0.3-0.5-0.5-0.8-0.6c-0.3-0.2-0.6-0.3-1-0.5c-0.4-0.2-0.9-0.3-1.4-0.4v-2.2H40v2.4c-1,0.3-1.8,0.9-2.4,1.7   c-0.6,0.8-0.9,1.7-0.9,2.8c0,1.2,0.4,2.2,1.1,2.8c0.7,0.7,1.6,1.2,2.4,1.6c0.9,0.4,1.7,0.8,2.4,1.1c0.7,0.3,1.1,0.7,1.1,1.1   c0,0.5-0.2,0.8-0.5,1c-0.4,0.2-0.7,0.3-1.1,0.3c-0.5,0-1-0.1-1.4-0.2c-0.4-0.1-0.8-0.3-1.2-0.5c-0.4-0.2-0.8-0.5-1.1-0.8l-2,2.9   c0.2,0.3,0.5,0.6,0.9,0.8c0.6,0.5,1.5,0.9,2.7,1.2v2.3h4.1V51.9z"/>
</g>
<g id="Group_3797">
	<path id="Path_7311" class="st2" d="M9.4,18.8C4.6,25.6,2,33.7,2,42c0,22.1,17.9,40,40,40c0,0,0,0,0,0c8,0,15.8-2.4,22.4-6.9"/>
	<path id="Path_7312" class="st2" d="M76,63.1C87.6,44.3,81.8,19.6,63,8C49.9-0.1,33.4,0,20.4,8.3"/>
	<circle id="Ellipse_1642" class="st2" cx="70.5" cy="69.5" r="7.3"/>
	<circle id="Ellipse_1643" class="st2" cx="14.6" cy="13.6" r="7.3"/>
</g>
</svg>